<svg width="100" height="100" viewBox="0 0 100 100" fill="none" xmlns="http://www.w3.org/2000/svg">
<path d="M44.7525 44.6527H37.1917V51.8805H47.1922V55.2105C47.091 55.23 47.0107 55.26 46.9297 55.2592C43.464 55.2435 39.9975 55.251 36.5317 55.194C35.0085 55.1692 33.9277 54.1515 33.867 52.6297C33.7732 50.2807 33.8025 47.9257 33.78 45.5737C33.7777 45.3052 33.78 45.036 33.78 44.6737C32.991 44.6737 32.2642 44.679 31.5375 44.6722C30.6765 44.6647 29.8125 44.6932 28.956 44.6242C27.294 44.49 26.3197 43.4122 26.2972 41.6902C26.271 39.6525 26.2882 37.614 26.2882 35.5762C26.2882 30.744 26.286 25.911 26.2897 21.0787C26.2912 18.942 27.4095 17.7772 29.5327 17.7697C34.449 17.7517 39.366 17.7637 44.2822 17.766C44.424 17.766 44.565 17.79 44.7465 17.8065V21.1365H29.7015V41.289H33.7815V28.3635H37.1272V41.2927H41.4023V29.58H44.7525V44.6542V44.6527Z" fill="#131113"/>
</svg>
